name Walk2.mot
datacolumns 19
datarows 22
range 1.54500000 1.65000000
endheader

                time	   L_ground_force_vx	   L_ground_force_vy	   L_ground_force_vz	   L_ground_force_px	   L_ground_force_py	   L_ground_force_pz	   R_ground_force_vx	   R_ground_force_vy	   R_ground_force_vz	   R_ground_force_px	   R_ground_force_py	   R_ground_force_pz	   L_ground_torque_x	   L_ground_torque_y	   L_ground_torque_z	   R_ground_torque_x	   R_ground_torque_y	   R_ground_torque_z	
          1.54500000	          0.00000000	          0.00000000	          0.00000000	          0.00000000	          0.00000000	          0.00000000	         14.15536764	         51.57105581	          3.61536411	          0.22121136	          0.00000000	          0.05145345	          0.00000000	          0.00000000	          0.00000000	          0.00000000	         -4.09704127	          0.00000000	
          1.55000000	          0.00000000	          0.00000000	          0.00000000	          0.00000000	          0.00000000	          0.00000000	          9.57988494	         32.56390960	          3.39969768	          0.18459839	          0.00000000	          0.04327752	          0.00000000	          0.00000000	          0.00000000	          0.00000000	         -3.00670369	          0.00000000	
          1.55500000	          0.00000000	          0.00000000	          0.00000000	          0.00000000	          0.00000000	         -0.00000000	          5.88982339	         17.81332951	          2.99475705	          0.14679803	          0.00000000	          0.03468357	          0.00000000	          0.00000000	          0.00000000	          0.00000000	         -2.07116736	          0.00000000	
          1.56000000	          0.00000000	          0.00000000	         -0.00000000	          0.00000000	          0.00000000	         -0.00000000	          3.05765225	          6.94532600	          2.49824018	          0.11094943	          0.00000000	          0.02642990	          0.00000000	         -0.00000000	          0.00000000	          0.00000000	         -1.30742980	          0.00000000	
          1.56500000	          0.00000000	          0.00000000	         -0.00000000	         -0.00000000	          0.00000000	         -0.00000000	          0.99961244	         -0.57340542	          1.98225294	          0.07918566	          0.00000000	          0.01904670	          0.00000000	         -0.00000000	          0.00000000	          0.00000000	         -0.71425781	          0.00000000	
          1.57000000	          0.00000000	          0.00000000	         -0.00000000	         -0.00000000	          0.00000000	         -0.00000000	         -0.39922588	         -5.34967279	          1.49458808	          0.05255354	          0.00000000	          0.01280563	          0.00000000	         -0.00000000	          0.00000000	          0.00000000	         -0.27737895	          0.00000000	
          1.57500000	          0.00000000	          0.00000000	         -0.00000000	         -0.00000000	          0.00000000	         -0.00000000	         -1.26469986	         -7.98950610	          1.06365420	          0.03131853	          0.00000000	          0.00779058	          0.00000000	         -0.00000000	          0.00000000	          0.00000000	          0.02472033	          0.00000000	
          1.58000000	          0.00000000	          0.00000000	         -0.00000000	         -0.00000000	          0.00000000	         -0.00000000	         -1.71968909	         -9.05050673	          0.70318247	          0.01522401	          0.00000000	          0.00395839	          0.00000000	         -0.00000000	          0.00000000	          0.00000000	          0.21649566	          0.00000000	
          1.58500000	          0.00000000	          0.00000000	         -0.00000000	         -0.00000000	          0.00000000	         -0.00000000	         -1.87545825	         -9.01512024	          0.41640570	          0.00369887	          0.00000000	          0.00118782	          0.00000000	         -0.00000000	          0.00000000	          0.00000000	          0.32235528	          0.00000000	
          1.59000000	          0.00000000	          0.00000000	         -0.00000000	         -0.00000000	          0.00000000	         -0.00000000	         -1.82702393	         -8.27944055	          0.19956866	         -0.00398451	          0.00000000	         -0.00068284	          0.00000000	         -0.00000000	          0.00000000	          0.00000000	          0.36474659	          0.00000000	
          1.59500000	          0.00000000	          0.00000000	         -0.00000000	         -0.00000000	          0.00000000	         -0.00000000	         -1.65146843	         -7.15285979	          0.04473179	         -0.00859659	          0.00000000	         -0.00182845	          0.00000000	         -0.00000000	          0.00000000	          0.00000000	          0.36308428	          0.00000000	
          1.60000000	          0.00000000	          0.00000000	         -0.00000000	         -0.00000000	          0.00000000	         -0.00000000	         -1.40827691	         -5.86470064	         -0.05809983	         -0.01087434	          0.00000000	         -0.00241850	          0.00000000	         -0.00000000	          0.00000000	          0.00000000	          0.33330269	          0.00000000	
          1.60500000	          0.00000000	          0.00000000	         -0.00000000	         -0.00000000	          0.00000000	         -0.00000000	         -1.14094522	         -4.57480223	         -0.11944877	         -0.01147499	          0.00000000	         -0.00260561	          0.00000000	         -0.00000000	          0.00000000	          0.00000000	          0.28784412	          0.00000000	
          1.61000000	         -0.00000000	         -0.00000000	         -0.00000000	         -0.00000000	          0.00000000	         -0.00000000	         -0.87927562	         -3.38580382	         -0.14934370	         -0.01095264	          0.00000000	         -0.00251953	          0.00000000	         -0.00000000	          0.00000000	          0.00000000	          0.23592744	          0.00000000	
          1.61500000	         -0.00000000	         -0.00000000	         -0.00000000	         -0.00000000	          0.00000000	         -0.00000000	         -0.64193190	         -2.35554603	         -0.15670345	         -0.00975145	          0.00000000	         -0.00226507	          0.00000000	         -0.00000000	          0.00000000	          0.00000000	          0.18397526	          0.00000000	
          1.62000000	         -0.00000000	         -0.00000000	         -0.00000000	         -0.00000000	          0.00000000	         -0.00000000	         -0.43895892	         -1.50856646	         -0.14902978	         -0.00820992	          0.00000000	         -0.00192274	          0.00000000	         -0.00000000	          0.00000000	          0.00000000	          0.13610912	          0.00000000	
          1.62500000	         -0.00000000	         -0.00000000	         -0.00000000	         -0.00000000	          0.00000000	          0.00000000	         -0.27407994	         -0.84610550	         -0.13232234	         -0.00657207	          0.00000000	         -0.00155115	          0.00000000	         -0.00000000	          0.00000000	          0.00000000	          0.09464891	          0.00000000	
          1.63000000	         -0.00000000	         -0.00000000	          0.00000000	         -0.00000000	          0.00000000	          0.00000000	         -0.14666983	         -0.35436541	         -0.11114309	         -0.00500197	          0.00000000	         -0.00119018	          0.00000000	          0.00000000	          0.00000000	          0.00000000	          0.06057569	          0.00000000	
          1.63500000	         -0.00000000	         -0.00000000	          0.00000000	          0.00000000	          0.00000000	          0.00000000	         -0.05336439	         -0.01099599	         -0.08877117	         -0.00359950	          0.00000000	         -0.00086457	          0.00000000	          0.00000000	          0.00000000	          0.00000000	          0.03393439	          0.00000000	
          1.64000000	         -0.00000000	         -0.00000000	          0.00000000	          0.00000000	          0.00000000	          0.00000000	          0.01069107	          0.21006981	         -0.06740377	         -0.00241545	          0.00000000	         -0.00058738	          0.00000000	          0.00000000	          0.00000000	          0.00000000	          0.01416604	          0.00000000	
          1.64500000	         -0.00000000	         -0.00000000	          0.00000000	          0.00000000	          0.00000000	          0.00000000	          0.05092305	          0.33522105	         -0.04837044	         -0.00146511	          0.00000000	         -0.00036317	          0.00000000	          0.00000000	          0.00000000	          0.00000000	          0.00036862	          0.00000000	
          1.65000000	         -0.00000000	         -0.00000000	          0.00000000	          0.00000000	          0.00000000	          0.00000000	          0.07269565	          0.38896618	         -0.03233922	         -0.00073980	          0.00000000	         -0.00019067	          0.00000000	          0.00000000	          0.00000000	          0.00000000	         -0.00850855	          0.00000000	
